<svg xmlns="http://www.w3.org/2000/svg" xmlns:xlink="http://www.w3.org/1999/xlink" width="700" zoomAndPan="magnify" viewBox="0 0 525 113.999999" height="152" preserveAspectRatio="xMidYMid meet" version="1.0"><defs><g/><clipPath id="f1e8afd0b4"><rect x="0" width="396" y="0" height="93"/></clipPath><clipPath id="8d1ba8318e"><rect x="0" width="168" y="0" height="27"/></clipPath><clipPath id="0590eff1bf"><path d="M 18 52 L 85 52 L 85 113.25 L 18 113.25 Z M 18 52 " clip-rule="nonzero"/></clipPath><clipPath id="87ad76f29a"><path d="M 21 52 L 88 52 L 88 113.25 L 21 113.25 Z M 21 52 " clip-rule="nonzero"/></clipPath><clipPath id="e39d6aebf8"><path d="M 2.921875 31 L 59 31 L 59 87 L 2.921875 87 Z M 2.921875 31 " clip-rule="nonzero"/></clipPath><clipPath id="808737d6ac"><path d="M 2.921875 0 L 59 0 L 59 19 L 2.921875 19 Z M 2.921875 0 " clip-rule="nonzero"/></clipPath><clipPath id="8b68eac728"><path d="M 24 52 L 90.941406 52 L 90.941406 113.25 L 24 113.25 Z M 24 52 " clip-rule="nonzero"/></clipPath><clipPath id="9598fc492e"><path d="M 5.441406 31 L 61 31 L 61 87 L 5.441406 87 Z M 5.441406 31 " clip-rule="nonzero"/></clipPath><clipPath id="7d70c891e9"><path d="M 5.441406 0 L 61 0 L 61 19 L 5.441406 19 Z M 5.441406 0 " clip-rule="nonzero"/></clipPath></defs><g transform="matrix(1, 0, 0, 1, 112, -0.000000000000013584)"><g clip-path="url(#f1e8afd0b4)"><g fill="#120037" fill-opacity="1"><g transform="translate(1.542848, 65.884053)"><g><path d="M 59.25 -10.640625 C 56.5 -6.515625 53.117188 -3.484375 49.109375 -1.546875 C 45.097656 0.378906 40.164062 1.34375 34.3125 1.34375 C 14.40625 1.34375 4.453125 -9.816406 4.453125 -32.140625 C 4.453125 -43.554688 6.972656 -51.988281 12.015625 -57.4375 C 17.066406 -62.894531 24.347656 -65.625 33.859375 -65.625 C 40.140625 -65.625 45.257812 -64.5625 49.21875 -62.4375 C 53.1875 -60.3125 56.207031 -57.535156 58.28125 -54.109375 L 48.109375 -46.203125 C 46.628906 -48.429688 45.269531 -50.039062 44.03125 -51.03125 C 42.789062 -52.03125 41.378906 -52.773438 39.796875 -53.265625 C 38.222656 -53.765625 36.335938 -54.015625 34.140625 -54.015625 C 28.867188 -54.015625 24.851562 -52.332031 22.09375 -48.96875 C 19.34375 -45.613281 17.96875 -40.003906 17.96875 -32.140625 C 17.96875 -24.796875 19.257812 -19.3125 21.84375 -15.6875 C 24.4375 -12.070312 28.5625 -10.265625 34.21875 -10.265625 C 38.03125 -10.265625 40.992188 -10.988281 43.109375 -12.4375 C 45.234375 -13.894531 47.164062 -15.832031 48.90625 -18.25 Z M 59.25 -10.640625 "/></g></g></g><g fill="#120037" fill-opacity="1"><g transform="translate(63.434502, 65.884053)"><g><path d="M 59.34375 -32.140625 C 59.34375 -20.960938 56.984375 -12.585938 52.265625 -7.015625 C 47.546875 -1.441406 40.679688 1.34375 31.671875 1.34375 C 22.171875 1.34375 15.179688 -1.585938 10.703125 -7.453125 C 6.234375 -13.316406 4 -21.546875 4 -32.140625 C 4 -42.785156 6.234375 -51.023438 10.703125 -56.859375 C 15.179688 -62.703125 22.171875 -65.625 31.671875 -65.625 C 41.234375 -65.625 48.234375 -62.703125 52.671875 -56.859375 C 57.117188 -51.023438 59.34375 -42.785156 59.34375 -32.140625 Z M 45.84375 -32.140625 C 45.84375 -39.753906 44.765625 -45.300781 42.609375 -48.78125 C 40.453125 -52.269531 36.804688 -54.015625 31.671875 -54.015625 C 26.535156 -54.015625 22.890625 -52.269531 20.734375 -48.78125 C 18.585938 -45.300781 17.515625 -39.753906 17.515625 -32.140625 C 17.515625 -24.523438 18.601562 -18.972656 20.78125 -15.484375 C 22.96875 -12.003906 26.597656 -10.265625 31.671875 -10.265625 C 36.804688 -10.265625 40.453125 -12.003906 42.609375 -15.484375 C 44.765625 -18.972656 45.84375 -24.523438 45.84375 -32.140625 Z M 45.84375 -32.140625 "/></g></g></g><g fill="#120037" fill-opacity="1"><g transform="translate(126.765486, 65.884053)"><g><path d="M 53.921875 -42.71875 C 53.921875 -34.976562 52.097656 -29.234375 48.453125 -25.484375 C 44.816406 -21.742188 38.914062 -19.875 30.75 -19.875 L 20.0625 -19.875 L 20.0625 0 L 6.96875 0 L 6.96875 -64.265625 L 31.109375 -64.265625 C 38.390625 -64.265625 44.007812 -62.570312 47.96875 -59.1875 C 51.9375 -55.800781 53.921875 -50.3125 53.921875 -42.71875 Z M 40.40625 -42.625 C 40.40625 -46.25 39.40625 -48.863281 37.40625 -50.46875 C 35.40625 -52.082031 31.804688 -52.890625 26.609375 -52.890625 L 20.0625 -52.890625 L 20.0625 -31.296875 L 25.40625 -31.296875 C 30.195312 -31.296875 33.515625 -31.628906 35.359375 -32.296875 C 37.203125 -32.960938 38.503906 -34.082031 39.265625 -35.65625 C 40.023438 -37.238281 40.40625 -39.5625 40.40625 -42.625 Z M 40.40625 -42.625 "/></g></g></g><g fill="#120037" fill-opacity="1"><g transform="translate(184.292688, 65.884053)"><g><path d="M 35.765625 0 L 4.734375 0 L 4.734375 -10.078125 L 13.703125 -10.078125 L 13.703125 -54.203125 L 4.734375 -54.203125 L 4.734375 -64.265625 L 35.765625 -64.265625 L 35.765625 -54.203125 L 26.84375 -54.203125 L 26.84375 -10.078125 L 35.765625 -10.078125 Z M 35.765625 0 "/></g></g></g><g fill="#120037" fill-opacity="1"><g transform="translate(224.779944, 65.884053)"><g><path d="M 6.96875 0 L 6.96875 -64.265625 L 48.71875 -64.265625 L 48.71875 -52.703125 L 20.0625 -52.703125 L 20.0625 -39.015625 L 44.21875 -39.015625 L 44.21875 -27.40625 L 20.0625 -27.40625 L 20.0625 -11.984375 L 48.71875 -11.984375 L 48.71875 0 Z M 6.96875 0 "/></g></g></g><g fill="#120037" fill-opacity="1"><g transform="translate(278.128416, 65.884053)"><g><path d="M 43.09375 0 L 26.703125 -24.328125 L 20.0625 -24.328125 L 20.0625 0 L 6.96875 0 L 6.96875 -64.265625 L 30.328125 -64.265625 C 38.585938 -64.265625 44.628906 -62.78125 48.453125 -59.8125 C 52.285156 -56.84375 54.203125 -51.96875 54.203125 -45.1875 C 54.203125 -39.707031 53.046875 -35.34375 50.734375 -32.09375 C 48.429688 -28.84375 45.15625 -26.765625 40.90625 -25.859375 L 58.09375 0 Z M 40.90625 -44.625 C 40.90625 -47.90625 40.078125 -50.101562 38.421875 -51.21875 C 36.765625 -52.332031 34.035156 -52.890625 30.234375 -52.890625 L 20.0625 -52.890625 L 20.0625 -35.765625 L 29.671875 -35.765625 C 32.617188 -35.765625 34.878906 -36.039062 36.453125 -36.59375 C 38.035156 -37.15625 39.171875 -38.019531 39.859375 -39.1875 C 40.554688 -40.363281 40.90625 -42.175781 40.90625 -44.625 Z M 40.90625 -44.625 "/></g></g></g><g fill="#120037" fill-opacity="1"><g transform="translate(337.744972, 65.884053)"><g><path d="M 53.171875 -18.625 C 53.171875 -12.1875 51.054688 -7.25 46.828125 -3.8125 C 42.609375 -0.375 36.378906 1.34375 28.140625 1.34375 C 22.441406 1.34375 17.492188 0.398438 13.296875 -1.484375 C 9.109375 -3.367188 5.695312 -6.421875 3.0625 -10.640625 L 13.140625 -18.34375 C 14.628906 -16.238281 16.035156 -14.660156 17.359375 -13.609375 C 18.691406 -12.554688 20.269531 -11.734375 22.09375 -11.140625 C 23.925781 -10.554688 26.035156 -10.265625 28.421875 -10.265625 C 31.984375 -10.265625 34.757812 -10.875 36.75 -12.09375 C 38.75 -13.320312 39.75 -15.1875 39.75 -17.6875 C 39.75 -19.113281 39.398438 -20.304688 38.703125 -21.265625 C 38.003906 -22.222656 36.957031 -23.050781 35.5625 -23.75 C 34.175781 -24.445312 31.765625 -25.242188 28.328125 -26.140625 C 24.984375 -27.046875 21.832031 -27.953125 18.875 -28.859375 C 15.914062 -29.773438 13.359375 -30.957031 11.203125 -32.40625 C 9.054688 -33.863281 7.363281 -35.691406 6.125 -37.890625 C 4.882812 -40.085938 4.265625 -42.859375 4.265625 -46.203125 C 4.265625 -52.304688 6.320312 -57.066406 10.4375 -60.484375 C 14.5625 -63.910156 20.460938 -65.625 28.140625 -65.625 C 39.253906 -65.625 47.117188 -61.816406 51.734375 -54.203125 L 41.75 -46.390625 C 39.988281 -49.117188 38.007812 -51.070312 35.8125 -52.25 C 33.613281 -53.425781 30.992188 -54.015625 27.953125 -54.015625 C 24.921875 -54.015625 22.453125 -53.460938 20.546875 -52.359375 C 18.640625 -51.265625 17.6875 -49.539062 17.6875 -47.1875 C 17.6875 -45.113281 18.675781 -43.523438 20.65625 -42.421875 C 22.644531 -41.328125 26.097656 -40.222656 31.015625 -39.109375 C 33.742188 -38.390625 36.4375 -37.617188 39.09375 -36.796875 C 41.757812 -35.984375 44.132812 -34.847656 46.21875 -33.390625 C 48.3125 -31.929688 49.992188 -30.023438 51.265625 -27.671875 C 52.535156 -25.328125 53.171875 -22.3125 53.171875 -18.625 Z M 53.171875 -18.625 "/></g></g></g></g></g><g transform="matrix(1, 0, 0, 1, 231, 87)"><g clip-path="url(#8d1ba8318e)"><g fill="#120037" fill-opacity="1"><g transform="translate(1.241206, 25.20807)"><g><path d="M 12.703125 -4.921875 C 12.703125 -3.316406 12.125 -2.050781 10.96875 -1.125 C 9.820312 -0.207031 8.21875 0.25 6.15625 0.25 C 4.269531 0.25 2.597656 -0.109375 1.140625 -0.828125 L 1.140625 -4.3125 C 2.335938 -3.78125 3.347656 -3.40625 4.171875 -3.1875 C 5.003906 -2.96875 5.765625 -2.859375 6.453125 -2.859375 C 7.273438 -2.859375 7.90625 -3.015625 8.34375 -3.328125 C 8.789062 -3.648438 9.015625 -4.125 9.015625 -4.75 C 9.015625 -5.09375 8.914062 -5.398438 8.71875 -5.671875 C 8.53125 -5.941406 8.242188 -6.203125 7.859375 -6.453125 C 7.484375 -6.703125 6.71875 -7.101562 5.5625 -7.65625 C 4.476562 -8.164062 3.664062 -8.65625 3.125 -9.125 C 2.582031 -9.59375 2.148438 -10.132812 1.828125 -10.75 C 1.503906 -11.375 1.34375 -12.101562 1.34375 -12.9375 C 1.34375 -14.507812 1.875 -15.742188 2.9375 -16.640625 C 4 -17.535156 5.46875 -17.984375 7.34375 -17.984375 C 8.269531 -17.984375 9.148438 -17.875 9.984375 -17.65625 C 10.828125 -17.4375 11.703125 -17.128906 12.609375 -16.734375 L 11.40625 -13.8125 C 10.457031 -14.207031 9.671875 -14.476562 9.046875 -14.625 C 8.429688 -14.78125 7.828125 -14.859375 7.234375 -14.859375 C 6.515625 -14.859375 5.960938 -14.691406 5.578125 -14.359375 C 5.203125 -14.023438 5.015625 -13.59375 5.015625 -13.0625 C 5.015625 -12.726562 5.09375 -12.4375 5.25 -12.1875 C 5.40625 -11.945312 5.648438 -11.710938 5.984375 -11.484375 C 6.316406 -11.253906 7.113281 -10.835938 8.375 -10.234375 C 10.03125 -9.441406 11.164062 -8.644531 11.78125 -7.84375 C 12.394531 -7.050781 12.703125 -6.078125 12.703125 -4.921875 Z M 12.703125 -4.921875 "/></g></g></g><g fill="#120037" fill-opacity="1"><g transform="translate(24.54766, 25.20807)"><g><path d="M 12.453125 0 L 2.234375 0 L 2.234375 -17.734375 L 12.453125 -17.734375 L 12.453125 -14.65625 L 6 -14.65625 L 6 -10.765625 L 12 -10.765625 L 12 -7.671875 L 6 -7.671875 L 6 -3.109375 L 12.453125 -3.109375 Z M 12.453125 0 "/></g></g></g><g fill="#120037" fill-opacity="1"><g transform="translate(48.084635, 25.20807)"><g><path d="M 6 -9.859375 L 7.203125 -9.859375 C 8.390625 -9.859375 9.265625 -10.054688 9.828125 -10.453125 C 10.398438 -10.847656 10.6875 -11.472656 10.6875 -12.328125 C 10.6875 -13.171875 10.394531 -13.769531 9.8125 -14.125 C 9.238281 -14.476562 8.347656 -14.65625 7.140625 -14.65625 L 6 -14.65625 Z M 6 -6.8125 L 6 0 L 2.234375 0 L 2.234375 -17.734375 L 7.40625 -17.734375 C 9.8125 -17.734375 11.59375 -17.296875 12.75 -16.421875 C 13.90625 -15.546875 14.484375 -14.210938 14.484375 -12.421875 C 14.484375 -11.378906 14.195312 -10.453125 13.625 -9.640625 C 13.050781 -8.828125 12.238281 -8.191406 11.1875 -7.734375 C 13.851562 -3.742188 15.59375 -1.164062 16.40625 0 L 12.234375 0 L 8 -6.8125 Z M 6 -6.8125 "/></g></g></g><g fill="#120037" fill-opacity="1"><g transform="translate(74.108669, 25.20807)"><g><path d="M 12.34375 -17.734375 L 16.140625 -17.734375 L 10.109375 0 L 6.015625 0 L 0 -17.734375 L 3.796875 -17.734375 L 7.140625 -7.1875 C 7.316406 -6.5625 7.503906 -5.832031 7.703125 -5 C 7.898438 -4.175781 8.023438 -3.601562 8.078125 -3.28125 C 8.171875 -4.019531 8.472656 -5.320312 8.984375 -7.1875 Z M 12.34375 -17.734375 "/></g></g></g><g fill="#120037" fill-opacity="1"><g transform="translate(99.877941, 25.20807)"><g><path d="M 2.234375 0 L 2.234375 -17.734375 L 6 -17.734375 L 6 0 Z M 2.234375 0 "/></g></g></g><g fill="#120037" fill-opacity="1"><g transform="translate(117.724973, 25.20807)"><g><path d="M 9.765625 -14.859375 C 8.347656 -14.859375 7.25 -14.328125 6.46875 -13.265625 C 5.695312 -12.203125 5.3125 -10.71875 5.3125 -8.8125 C 5.3125 -4.863281 6.796875 -2.890625 9.765625 -2.890625 C 11.015625 -2.890625 12.523438 -3.203125 14.296875 -3.828125 L 14.296875 -0.671875 C 12.835938 -0.0546875 11.207031 0.25 9.40625 0.25 C 6.832031 0.25 4.859375 -0.53125 3.484375 -2.09375 C 2.117188 -3.664062 1.4375 -5.914062 1.4375 -8.84375 C 1.4375 -10.6875 1.769531 -12.300781 2.4375 -13.6875 C 3.113281 -15.070312 4.082031 -16.132812 5.34375 -16.875 C 6.601562 -17.613281 8.078125 -17.984375 9.765625 -17.984375 C 11.484375 -17.984375 13.210938 -17.566406 14.953125 -16.734375 L 13.75 -13.6875 C 13.082031 -14 12.410156 -14.269531 11.734375 -14.5 C 11.066406 -14.738281 10.410156 -14.859375 9.765625 -14.859375 Z M 9.765625 -14.859375 "/></g></g></g><g fill="#120037" fill-opacity="1"><g transform="translate(143.178812, 25.20807)"><g><path d="M 12.453125 0 L 2.234375 0 L 2.234375 -17.734375 L 12.453125 -17.734375 L 12.453125 -14.65625 L 6 -14.65625 L 6 -10.765625 L 12 -10.765625 L 12 -7.671875 L 6 -7.671875 L 6 -3.109375 L 12.453125 -3.109375 Z M 12.453125 0 "/></g></g></g></g></g><g clip-path="url(#0590eff1bf)"><path fill="#120037" d="M 83.347656 80.972656 C 79.796875 70.875 71.109375 64.804688 60.097656 64.734375 C 56.082031 64.707031 52.007812 64.714844 48.0625 64.71875 C 46.246094 64.722656 44.429688 64.726562 42.613281 64.726562 C 39.96875 64.71875 37.664062 64.324219 35.59375 63.472656 C 30.367188 61.3125 26.835938 57.699219 24.800781 52.445312 L 18.90625 52.445312 C 18.929688 52.605469 18.964844 52.769531 19.015625 52.9375 C 22.101562 63.386719 31.753906 70.542969 42.503906 70.378906 C 48.160156 70.28125 53.683594 70.320312 59.792969 70.378906 C 61.105469 70.390625 62.816406 70.453125 64.445312 70.820312 C 72.371094 72.621094 78.199219 79.167969 78.953125 87.121094 C 79.445312 92.355469 77.710938 97.59375 74.195312 101.492188 C 70.699219 105.371094 65.925781 107.53125 60.746094 107.578125 C 55.03125 107.628906 49.214844 107.613281 43.59375 107.597656 C 40.824219 107.589844 38.058594 107.578125 35.292969 107.578125 L 34.59375 107.578125 C 30.957031 107.578125 27.214844 107.578125 23.507812 107.613281 L 23.507812 113.195312 C 26.285156 113.195312 29.0625 113.195312 31.839844 113.199219 C 34.144531 113.199219 36.46875 113.199219 38.804688 113.199219 C 46.03125 113.199219 53.375 113.1875 60.628906 113.128906 C 62.984375 113.109375 65.410156 112.75 67.644531 112.085938 C 73.976562 110.203125 79.117188 105.921875 82.117188 100.042969 C 85.144531 94.109375 85.582031 87.335938 83.347656 80.972656 Z M 83.347656 80.972656 " fill-opacity="1" fill-rule="nonzero"/></g><path fill="#120037" d="M 49.324219 31.136719 C 46.097656 38.523438 39.652344 42.757812 31.617188 42.757812 L 31.613281 42.757812 C 21.960938 42.757812 12.3125 42.753906 2.664062 42.757812 C 0.898438 42.757812 0.226562 43.066406 0.0117188 44.300781 L 0.0117188 86.414062 L 5.558594 86.414062 C 5.574219 73.785156 5.585938 61.417969 5.542969 48.984375 C 5.542969 48.707031 5.5625 48.5625 5.578125 48.488281 C 5.652344 48.472656 5.796875 48.453125 6.082031 48.453125 C 13.867188 48.5 22.925781 48.542969 31.9375 48.464844 C 39.535156 48.402344 45.847656 45.441406 50.707031 39.675781 C 52.851562 37.125 54.324219 34.328125 55.21875 31.136719 Z M 49.324219 31.136719 " fill-opacity="1" fill-rule="nonzero"/><path fill="#120037" d="M 55.542969 18.566406 C 55.535156 18.527344 55.53125 18.480469 55.519531 18.441406 C 55.457031 18.039062 55.402344 17.695312 55.28125 17.335938 C 51.847656 6.652344 42.726562 0.0117188 31.480469 0.00390625 C 21.003906 -0.00390625 10.53125 0 0.0585938 0.00390625 L 0.0117188 0.00390625 L 0.0117188 5.71875 C 10.457031 5.71875 21.171875 5.71875 31.722656 5.753906 C 33.847656 5.761719 35.589844 5.972656 37.039062 6.398438 C 43.25 8.222656 47.527344 12.320312 49.75 18.570312 L 55.542969 18.570312 Z M 55.542969 18.566406 " fill-opacity="1" fill-rule="nonzero"/><path fill="#120037" d="M 42.699219 22 C 36.621094 22.011719 31.296875 23.875 26.878906 27.542969 C 23.089844 30.683594 20.550781 34.546875 19.113281 39.332031 L 25.09375 39.332031 C 28.140625 32.015625 34.710938 27.644531 42.703125 27.636719 C 49.191406 27.632812 55.675781 27.632812 62.164062 27.632812 L 73.164062 27.636719 C 75.464844 27.636719 77.765625 27.636719 80.0625 27.625 L 80.0625 22.015625 C 69.738281 21.996094 56.1875 21.980469 42.699219 22 Z M 42.699219 22 " fill-opacity="1" fill-rule="nonzero"/><g clip-path="url(#87ad76f29a)"><path fill="#120037" d="M 86.269531 80.972656 C 82.71875 70.875 74.027344 64.804688 63.019531 64.734375 C 59.003906 64.707031 54.929688 64.714844 50.984375 64.71875 C 49.167969 64.722656 47.351562 64.726562 45.535156 64.726562 C 42.886719 64.71875 40.585938 64.324219 38.515625 63.472656 C 33.289062 61.3125 29.753906 57.699219 27.722656 52.445312 L 21.828125 52.445312 C 21.851562 52.605469 21.886719 52.769531 21.9375 52.9375 C 25.023438 63.386719 34.675781 70.542969 45.421875 70.378906 C 51.082031 70.28125 56.605469 70.320312 62.714844 70.378906 C 64.027344 70.390625 65.738281 70.453125 67.367188 70.820312 C 75.292969 72.621094 81.121094 79.167969 81.875 87.121094 C 82.367188 92.355469 80.632812 97.59375 77.117188 101.492188 C 73.621094 105.371094 68.847656 107.53125 63.667969 107.578125 C 57.953125 107.628906 52.136719 107.613281 46.515625 107.597656 C 43.746094 107.589844 40.980469 107.578125 38.214844 107.578125 L 37.515625 107.578125 C 33.878906 107.578125 30.136719 107.578125 26.429688 107.613281 L 26.429688 113.195312 C 29.207031 113.195312 31.984375 113.195312 34.761719 113.199219 C 37.066406 113.199219 39.390625 113.199219 41.726562 113.199219 C 48.953125 113.199219 56.296875 113.1875 63.550781 113.128906 C 65.90625 113.109375 68.332031 112.75 70.566406 112.085938 C 76.898438 110.203125 82.039062 105.921875 85.039062 100.042969 C 88.066406 94.109375 88.5 87.335938 86.269531 80.972656 Z M 86.269531 80.972656 " fill-opacity="1" fill-rule="nonzero"/></g><g clip-path="url(#e39d6aebf8)"><path fill="#120037" d="M 52.246094 31.136719 C 49.019531 38.523438 42.574219 42.757812 34.535156 42.757812 C 24.882812 42.757812 15.234375 42.753906 5.585938 42.757812 C 3.820312 42.757812 3.148438 43.066406 2.933594 44.300781 L 2.933594 86.414062 L 8.480469 86.414062 C 8.496094 73.785156 8.507812 61.417969 8.464844 48.984375 C 8.464844 48.707031 8.484375 48.5625 8.5 48.488281 C 8.574219 48.472656 8.71875 48.453125 9 48.453125 C 16.789062 48.5 25.847656 48.542969 34.859375 48.464844 C 42.457031 48.402344 48.769531 45.441406 53.628906 39.675781 C 55.773438 37.125 57.246094 34.328125 58.140625 31.136719 Z M 52.246094 31.136719 " fill-opacity="1" fill-rule="nonzero"/></g><g clip-path="url(#808737d6ac)"><path fill="#120037" d="M 58.464844 18.566406 C 58.457031 18.527344 58.449219 18.480469 58.441406 18.441406 C 58.378906 18.039062 58.324219 17.695312 58.203125 17.335938 C 54.769531 6.652344 45.648438 0.0117188 34.402344 0.00390625 C 23.925781 -0.00390625 13.453125 0 2.980469 0.00390625 L 2.933594 0.00390625 L 2.933594 5.71875 C 13.378906 5.71875 24.09375 5.71875 34.644531 5.753906 C 36.769531 5.761719 38.511719 5.972656 39.960938 6.398438 C 46.171875 8.222656 50.449219 12.320312 52.671875 18.570312 L 58.464844 18.570312 Z M 58.464844 18.566406 " fill-opacity="1" fill-rule="nonzero"/></g><path fill="#120037" d="M 45.617188 22 C 39.542969 22.011719 34.21875 23.875 29.800781 27.542969 C 26.011719 30.683594 23.472656 34.546875 22.035156 39.332031 L 28.015625 39.332031 C 31.0625 32.015625 37.632812 27.644531 45.625 27.636719 C 52.113281 27.632812 58.597656 27.632812 65.085938 27.632812 L 76.085938 27.636719 C 78.386719 27.636719 80.683594 27.636719 82.984375 27.625 L 82.984375 22.015625 C 72.660156 21.996094 59.109375 21.980469 45.617188 22 Z M 45.617188 22 " fill-opacity="1" fill-rule="nonzero"/><g clip-path="url(#8b68eac728)"><path fill="#120037" d="M 88.785156 80.972656 C 85.238281 70.875 76.546875 64.804688 65.535156 64.734375 C 61.523438 64.707031 57.445312 64.714844 53.503906 64.71875 C 51.683594 64.722656 49.871094 64.726562 48.054688 64.726562 C 45.40625 64.71875 43.101562 64.324219 41.03125 63.472656 C 35.804688 61.3125 32.273438 57.699219 30.242188 52.445312 L 24.34375 52.445312 C 24.371094 52.605469 24.402344 52.769531 24.453125 52.9375 C 27.539062 63.386719 37.191406 70.542969 47.941406 70.378906 C 53.601562 70.28125 59.125 70.320312 65.234375 70.378906 C 66.546875 70.390625 68.257812 70.453125 69.882812 70.820312 C 77.808594 72.621094 83.640625 79.167969 84.390625 87.121094 C 84.886719 92.355469 83.152344 97.59375 79.636719 101.492188 C 76.140625 105.371094 71.363281 107.53125 66.1875 107.578125 C 60.472656 107.628906 54.65625 107.613281 49.035156 107.597656 C 46.265625 107.589844 43.5 107.578125 40.730469 107.578125 L 40.03125 107.578125 C 36.398438 107.578125 32.65625 107.578125 28.949219 107.613281 L 28.949219 113.195312 C 31.726562 113.195312 34.5 113.195312 37.28125 113.199219 C 39.582031 113.199219 41.90625 113.199219 44.242188 113.199219 C 51.46875 113.199219 58.816406 113.1875 66.066406 113.128906 C 68.421875 113.109375 70.847656 112.75 73.082031 112.085938 C 79.414062 110.203125 84.554688 105.921875 87.558594 100.042969 C 90.585938 94.109375 91.019531 87.335938 88.785156 80.972656 Z M 88.785156 80.972656 " fill-opacity="1" fill-rule="nonzero"/></g><g clip-path="url(#9598fc492e)"><path fill="#120037" d="M 54.765625 31.136719 C 51.539062 38.523438 45.09375 42.757812 37.054688 42.757812 L 37.050781 42.757812 C 27.402344 42.757812 17.753906 42.753906 8.105469 42.757812 C 6.335938 42.757812 5.664062 43.066406 5.453125 44.300781 L 5.453125 86.414062 L 10.996094 86.414062 C 11.011719 73.785156 11.027344 61.417969 10.980469 48.984375 C 10.980469 48.707031 11 48.5625 11.015625 48.488281 C 11.089844 48.472656 11.238281 48.453125 11.519531 48.453125 C 19.308594 48.5 28.367188 48.542969 37.378906 48.464844 C 44.972656 48.402344 51.289062 45.441406 56.144531 39.675781 C 58.289062 37.125 59.765625 34.328125 60.65625 31.136719 Z M 54.765625 31.136719 " fill-opacity="1" fill-rule="nonzero"/></g><g clip-path="url(#7d70c891e9)"><path fill="#120037" d="M 60.980469 18.566406 C 60.976562 18.527344 60.96875 18.480469 60.960938 18.441406 C 60.894531 18.039062 60.839844 17.695312 60.722656 17.335938 C 57.285156 6.652344 48.167969 0.0117188 36.921875 0.00390625 C 26.445312 -0.00390625 15.972656 0 5.5 0.00390625 L 5.453125 0.00390625 L 5.453125 5.71875 C 15.898438 5.71875 26.609375 5.71875 37.164062 5.753906 C 39.289062 5.761719 41.027344 5.972656 42.476562 6.398438 C 48.691406 8.222656 52.96875 12.320312 55.191406 18.570312 L 60.980469 18.570312 Z M 60.980469 18.566406 " fill-opacity="1" fill-rule="nonzero"/></g><path fill="#120037" d="M 48.136719 22 C 42.0625 22.011719 36.738281 23.875 32.320312 27.542969 C 28.53125 30.683594 25.988281 34.546875 24.554688 39.332031 L 30.535156 39.332031 C 33.582031 32.015625 40.152344 27.644531 48.144531 27.636719 C 54.628906 27.632812 61.117188 27.632812 67.601562 27.632812 L 78.605469 27.636719 C 80.90625 27.636719 83.203125 27.636719 85.5 27.625 L 85.5 22.015625 C 75.179688 21.996094 61.625 21.980469 48.136719 22 Z M 48.136719 22 " fill-opacity="1" fill-rule="nonzero"/></svg>